<svg xmlns="http://www.w3.org/2000/svg" xmlns:xlink="http://www.w3.org/1999/xlink" width="769.854" height="480.399" viewBox="0 0 769.854 480.399"><defs><style>.a{fill:#ffc107;}.b{opacity:0.1;}.c{fill:url(#a);}.d,.h{fill:#f5f5f5;}.e,.g{fill:none;stroke:#535461;stroke-miterlimit:10;}.e{stroke-width:2px;}.f,.h{opacity:0.2;}.i{fill:#a8a8a8;}.j{fill:url(#b);}.k{fill:#f7c4a7;}.l{fill:#535461;}.m{fill:#575988;}.n{fill:#e14b5a;}.o{fill:#632652;}.p{fill:#fff;opacity:0.5;}.q{fill:#67647e;}</style><linearGradient id="a" x1="0.5" y1="1" x2="0.5" gradientUnits="objectBoundingBox"><stop offset="0" stop-color="gray" stop-opacity="0.251"/><stop offset="0.54" stop-color="gray" stop-opacity="0.122"/><stop offset="1" stop-color="gray" stop-opacity="0.102"/></linearGradient><linearGradient id="b" x1="0.5" x2="0.5" y2="0" xlink:href="#a"/></defs><g transform="translate(0 0.014)"><rect class="a" width="76.222" height="30.341" rx="8.84" transform="translate(118.639 302.042)"/><rect class="a" width="76.222" height="30.341" rx="8.84" transform="translate(194.861 302.042)"/><rect class="b" width="76.222" height="30.341" rx="8.84" transform="translate(194.861 302.042)"/><rect class="a" width="76.222" height="30.341" rx="8.84" transform="translate(271.083 302.042)"/><rect class="a" width="76.222" height="30.341" rx="8.84" transform="translate(347.305 302.042)"/><rect class="b" width="76.222" height="30.341" rx="8.84" transform="translate(347.305 302.042)"/><rect class="a" width="76.222" height="30.341" rx="8.84" transform="translate(423.526 302.042)"/><rect class="a" width="76.222" height="30.341" rx="8.84" transform="translate(499.748 302.042)"/><rect class="b" width="76.222" height="30.341" rx="8.84" transform="translate(499.748 302.042)"/><rect class="a" width="76.222" height="30.341" rx="8.84" transform="translate(575.97 302.042) rotate(180)"/><rect class="a" width="76.222" height="30.341" rx="8.84" transform="translate(499.748 302.042) rotate(180)"/><rect class="b" width="76.222" height="30.341" rx="8.84" transform="translate(499.748 302.042) rotate(180)"/><rect class="a" width="76.222" height="30.341" rx="8.84" transform="translate(423.526 302.042) rotate(180)"/><rect class="a" width="76.222" height="30.341" rx="8.84" transform="translate(347.305 302.042) rotate(180)"/><rect class="b" width="76.222" height="30.341" rx="8.84" transform="translate(347.305 302.042) rotate(180)"/><rect class="a" width="76.222" height="30.341" rx="8.84" transform="translate(271.083 302.042) rotate(180)"/><rect class="a" width="76.222" height="30.341" rx="8.84" transform="translate(194.861 302.042) rotate(180)"/><rect class="b" width="76.222" height="30.341" rx="8.84" transform="translate(194.861 302.042) rotate(180)"/><rect class="a" width="76.222" height="30.341" rx="8.84" transform="translate(118.639 241.36)"/><rect class="a" width="76.222" height="30.341" rx="8.84" transform="translate(194.861 241.36)"/><rect class="b" width="76.222" height="30.341" rx="8.84" transform="translate(194.861 241.36)"/><rect class="a" width="76.222" height="30.341" rx="8.84" transform="translate(271.083 241.36)"/><rect class="a" width="76.222" height="30.341" rx="8.84" transform="translate(347.305 241.36)"/><rect class="b" width="76.222" height="30.341" rx="8.84" transform="translate(347.305 241.36)"/><rect class="a" width="76.222" height="30.341" rx="8.84" transform="translate(423.526 241.36)"/><rect class="a" width="76.222" height="30.341" rx="8.84" transform="translate(499.748 241.36)"/><rect class="b" width="76.222" height="30.341" rx="8.84" transform="translate(499.748 241.36)"/><rect class="a" width="76.222" height="30.341" rx="8.84" transform="translate(575.97 241.36) rotate(180)"/><rect class="a" width="76.222" height="30.341" rx="8.84" transform="translate(499.748 241.36) rotate(180)"/><rect class="b" width="76.222" height="30.341" rx="8.84" transform="translate(499.748 241.36) rotate(180)"/><rect class="a" width="76.222" height="30.341" rx="8.84" transform="translate(423.526 241.36) rotate(180)"/><rect class="a" width="76.222" height="30.341" rx="8.84" transform="translate(347.305 241.36) rotate(180)"/><rect class="b" width="76.222" height="30.341" rx="8.84" transform="translate(347.305 241.36) rotate(180)"/><rect class="a" width="76.222" height="30.341" rx="8.84" transform="translate(271.083 241.36) rotate(180)"/><rect class="a" width="76.222" height="30.341" rx="8.84" transform="translate(194.861 241.36) rotate(180)"/><rect class="b" width="76.222" height="30.341" rx="8.84" transform="translate(194.861 241.36) rotate(180)"/><rect class="a" width="76.222" height="30.341" rx="8.84" transform="translate(118.639 182.159)"/><rect class="a" width="76.222" height="30.341" rx="8.84" transform="translate(194.861 182.159)"/><rect class="b" width="76.222" height="30.341" rx="8.84" transform="translate(194.861 182.159)"/><rect class="a" width="76.222" height="30.341" rx="8.84" transform="translate(271.083 182.159)"/><rect class="a" width="76.222" height="30.341" rx="8.84" transform="translate(347.305 182.159)"/><rect class="b" width="76.222" height="30.341" rx="8.84" transform="translate(347.305 182.159)"/><rect class="a" width="76.222" height="30.341" rx="8.84" transform="translate(423.526 182.159)"/><rect class="a" width="76.222" height="30.341" rx="8.84" transform="translate(499.748 182.159)"/><rect class="b" width="76.222" height="30.341" rx="8.84" transform="translate(499.748 182.159)"/><rect class="a" width="76.222" height="30.341" rx="8.84" transform="translate(575.97 182.159) rotate(180)"/><rect class="a" width="76.222" height="30.341" rx="8.84" transform="translate(499.748 182.159) rotate(180)"/><rect class="b" width="76.222" height="30.341" rx="8.84" transform="translate(499.748 182.159) rotate(180)"/><rect class="a" width="76.222" height="30.341" rx="8.84" transform="translate(423.526 182.159) rotate(180)"/><rect class="a" width="76.222" height="30.341" rx="8.84" transform="translate(347.305 182.159) rotate(180)"/><rect class="b" width="76.222" height="30.341" rx="8.84" transform="translate(347.305 182.159) rotate(180)"/><rect class="a" width="76.222" height="30.341" rx="8.84" transform="translate(271.083 182.159) rotate(180)"/><rect class="a" width="76.222" height="30.341" rx="8.84" transform="translate(194.861 182.159) rotate(180)"/><rect class="b" width="76.222" height="30.341" rx="8.84" transform="translate(194.861 182.159) rotate(180)"/><rect class="a" width="76.222" height="30.341" rx="8.84" transform="translate(118.639 121.478)"/><rect class="a" width="76.222" height="30.341" rx="8.84" transform="translate(194.861 121.478)"/><rect class="b" width="76.222" height="30.341" rx="8.84" transform="translate(194.861 121.478)"/><rect class="a" width="76.222" height="30.341" rx="8.84" transform="translate(271.083 121.478)"/><rect class="a" width="76.222" height="30.341" rx="8.84" transform="translate(347.305 121.478)"/><rect class="b" width="76.222" height="30.341" rx="8.84" transform="translate(347.305 121.478)"/><rect class="a" width="76.222" height="30.341" rx="8.84" transform="translate(423.526 121.478)"/><rect class="a" width="76.222" height="30.341" rx="8.84" transform="translate(499.748 121.478)"/><rect class="b" width="76.222" height="30.341" rx="8.84" transform="translate(499.748 121.478)"/><rect class="c" width="82.142" height="32.694" rx="8.84" transform="translate(493.828 20.399)"/><rect class="a" width="76.222" height="30.341" rx="8.84" transform="translate(573.01 51.916) rotate(180)"/><rect class="a" width="76.222" height="30.341" rx="8.84" transform="translate(499.748 121.478) rotate(180)"/><rect class="b" width="76.222" height="30.341" rx="8.84" transform="translate(499.748 121.478) rotate(180)"/><rect class="a" width="76.222" height="30.341" rx="8.84" transform="translate(423.526 121.478) rotate(180)"/><rect class="a" width="76.222" height="30.341" rx="8.84" transform="translate(347.305 121.478) rotate(180)"/><rect class="b" width="76.222" height="30.341" rx="8.84" transform="translate(347.305 121.478) rotate(180)"/><rect class="a" width="76.222" height="30.341" rx="8.84" transform="translate(271.083 121.478) rotate(180)"/><rect class="a" width="76.222" height="30.341" rx="8.84" transform="translate(194.861 121.478) rotate(180)"/><rect class="b" width="76.222" height="30.341" rx="8.84" transform="translate(194.861 121.478) rotate(180)"/><ellipse class="d" cx="369.268" cy="83.992" rx="369.268" ry="83.992" transform="translate(0 312.402)"/><path class="e" d="M192.108,584.9s6.66-22.5-1.243-39.073a35.521,35.521,0,0,1-2.879-22.3,59.79,59.79,0,0,1,3.16-10.471" transform="translate(-107.783 -226.201)"/><path class="a" d="M185.87,497.155c0,2.76,5,10.76,5,10.76s5-8,5-10.76a5,5,0,0,0-9.99,0Z" transform="translate(-107.406 -220.77)"/><path class="a" d="M174.428,516.851c1.48,2.316,10.042,6.312,10.042,6.312s-.155-9.428-1.658-11.744a5,5,0,1,0-8.384,5.432Z" transform="translate(-104.222 -225.184)"/><path class="a" d="M174.23,551.518c2.464,1.243,11.84.385,11.84.385s-4.892-8.059-7.356-9.3a4.995,4.995,0,1,0-4.5,8.918Z" transform="translate(-103.662 -233.744)"/><path class="a" d="M180.949,578.341c2.22,1.643,11.618,2.383,11.618,2.383s-3.463-8.769-5.676-10.412a5,5,0,0,0-5.92,8.029Z" transform="translate(-105.66 -240.874)"/><path class="a" d="M198.516,525.789c-1.976,1.924-11.2,3.915-11.2,3.915s2.257-9.154,4.233-11.1a5,5,0,0,1,6.964,7.163Z" transform="translate(-107.783 -227.277)"/><path class="a" d="M205.36,556.711c-2.464,1.243-11.84.385-11.84.385s4.892-8.059,7.356-9.3a5,5,0,0,1,4.484,8.917Z" transform="translate(-109.395 -235.119)"/><path class="a" d="M208.138,588.211c-2.22,1.643-11.618,2.383-11.618,2.383s3.463-8.769,5.676-10.412a5,5,0,0,1,5.92,8.029Z" transform="translate(-110.175 -243.441)"/><path class="a" d="M667.829,437.8s24.339,24.339,10.6,60.452,23.555,96.2,23.555,96.2-.4-.059-1.14-.192c-49.988-8.858-74.823-66.032-47.028-108.494C664.144,469.976,672.632,451.461,667.829,437.8Z" transform="translate(-226.054 -206.637)"/><path class="f" d="M667.829,437.8s24.339,24.339,10.6,60.452,23.555,96.2,23.555,96.2-.4-.059-1.14-.192c-49.988-8.858-74.823-66.032-47.028-108.494C664.144,469.976,672.632,451.461,667.829,437.8Z" transform="translate(-226.054 -206.637)"/><path class="g" d="M674.84,437.8s13.742,29.83,0,54.169-2.353,92.635,34.174,102.448" transform="translate(-233.065 -206.637)"/><path class="a" d="M618.25,570.7s27.773-4.44,30.3,20.469,53.4,28.335,53.4,28.335l-.955.636c-42,27.573-82.142,17.561-76.1-19.048C627.145,587.486,626.945,573.8,618.25,570.7Z" transform="translate(-219.818 -241.11)"/><path class="h" d="M618.25,570.7s27.773-4.44,30.3,20.469,53.4,28.335,53.4,28.335l-.955.636c-42,27.573-82.142,17.561-76.1-19.048C627.145,587.486,626.945,573.8,618.25,570.7Z" transform="translate(-219.818 -241.11)"/><path class="g" d="M618.25,570.81s21.557,4.729,19.788,24.332,32.013,43.1,63.915,24.472" transform="translate(-219.818 -241.218)"/><path class="i" d="M846.918,634s-41.219-8.244-52.216-19.24-60.459-30.23-65.958-16.488-74.194,60.467-27.44,68.711,109.922,10.989,123.664,5.5S846.918,634,846.918,634Z" transform="translate(-237.196 -247.118)"/><path class="f" d="M701.317,676.008c46.717,8.244,109.922,10.989,123.664,5.5,10.464-4.188,17.76-24.295,20.609-33.656l1.376.289s-8.244,32.975-21.986,38.481-76.962,2.745-123.664-5.5c-13.483-2.383-17.339-7.97-15.888-15.045C686.517,670.687,691.246,674.232,701.317,676.008Z" transform="translate(-237.209 -261.247)"/><path class="j" d="M948.228,146.263a12.106,12.106,0,0,0-3.411-4.729c-11.063-10.079-28.949-7.023-42.684-13.187-3.167-1.421-6.409-3.389-9.842-2.849-4.8.74-9.258,6.216-13.439,3.789l.3.91-.3-.155,3.078,9.369c1.184,3.6,2.427,7.3,4.721,10.294a26.951,26.951,0,0,0,6.519,44.83c.148.311.289.629.429.947l.392.163a31.472,31.472,0,0,1,2.028,6.527c-3.56.5-9.768,4.44-15.866,10.242l-12.2-.407a39.917,39.917,0,0,1-21.934-7.459L809.5,178.313a12.217,12.217,0,0,0-6.993,3.093c-4.529-4.721-8.377-9.62-8.052-12.58,0,0-16.976-31.769-23.148-15.888S782.879,185.5,782.879,185.5l11.256,14.586a61.379,61.379,0,0,0-.844,7.733c13.89,15.888,62.494,30.259,62.494,30.259l7.578.37.044.37a25.8,25.8,0,0,0-.681,6.068q0,.444,0,.91v.607c.385,25.338,3.855,102.862,3.855,102.862.673-.3,1.376-.577,2.087-.836l-.54,6.89s-32.405,4.536-56.323,13.616-24.687,19.67-24.687,19.67v93.434c-6.83,3.508-17.612,8.14-23.148,5.646-6.009-2.679-9.3-.429-9.9,1.917h0a2.96,2.96,0,0,0,0,1.413h0a2.519,2.519,0,0,0,.229.6v.044a2.4,2.4,0,0,0,.407.533c2.316,2.272,52.467,21.934,64.041,18.907a8.006,8.006,0,0,0,1.051-.355c.111-.044.207-.1.318-.156s.429-.2.629-.318.229-.155.34-.229.348-.229.511-.355a3.405,3.405,0,0,0,.318-.289c.1-.1.3-.259.437-.407s.192-.222.289-.333.266-.3.385-.459.163-.244.252-.363.237-.34.34-.518.141-.252.207-.385.207-.377.3-.577a4.2,4.2,0,0,0,.17-.392c.052-.133.185-.422.266-.636s.089-.259.141-.392a7.15,7.15,0,0,0,.229-.74,1.438,1.438,0,0,1,.1-.378c.067-.259.141-.511.2-.74a2.035,2.035,0,0,1,.074-.355c.059-.281.118-.562.163-.844a.686.686,0,0,1,.052-.318c.052-.3.1-.614.133-.918v-.266c.037-.333.074-.666.1-1v-.207q.044-.54.067-1.081v-1.376a63.335,63.335,0,0,0-1.48-13.416h0l2.908-79.574a434.064,434.064,0,0,0,45.407-1.672l1.658,37.978s0,24.961,8.488,36.305c7.267,9.709,15.659,52.652,17.923,64.84-3.115,5.92-9.08,13.32-19.47,13.069,0,0-19.544-1.687-18.441,3.7h0a2.745,2.745,0,0,0,.126.414h0a3.835,3.835,0,0,0,.214.451h0c.081.141.17.281.274.429l.059.089q.166.233.378.488v.037c.133.155.274.311.429.466l.133.133c.178.178.355.355.563.54,10.027,9.08,68.666,10.59,68.666,10.59v-.422h0c0-2.627-.385-16.406-3.893-26.781h.814s-8.488-76.4-15.429-85.472c0,0-1.843-40.286,2.316-65.528l.74-.281c19.448-7.267,20.831-25.161,18.826-38.3,3.7,1.184,5.861,1.991,5.861,1.991s-.067-.57-.193-1.584l.193.074s-.37-2.405-.984-6.15c-1.391-10.308-4.085-28.32-6.956-36.823-.466-1.872-.91-3.471-1.317-4.677a79.957,79.957,0,0,1-3.4-15.711,186.2,186.2,0,0,1-1.192-20.839,200.037,200.037,0,0,1,2.131-27.8c1.177-8.037,2.22-17.183,2.146-23.569a31.424,31.424,0,0,0-.466-6.66c-1.029-4.714-5.58-7.778-10.308-9.731-.3-.126-.614-.229-.925-.348.119-1.783.266-3.811.459-5.92a5.084,5.084,0,0,0,3.93.8c2.035-.444,3.493-2.139,4.788-3.7,6.838-8.4,13.86-17.154,16.488-27.588a59.593,59.593,0,0,0,1.48-14.208v-.784A15.453,15.453,0,0,0,948.228,146.263Z" transform="translate(-255.106 -125.42)"/><path class="k" d="M932.34,204.978s10.36,15.54,8.14,22.94,24.421,2.96,24.421,2.96.74-28.861,5.92-35.521S932.34,204.978,932.34,204.978Z" transform="translate(-301.476 -143.19)"/><path class="k" d="M824.321,206.852s-21.46-17.76-20.72-24.421c0,0-16.28-31.081-22.2-15.54s11.1,31.821,11.1,31.821l20.72,27.381Z" transform="translate(-261.909 -135.074)"/><path class="l" d="M797.09,598.92s-19.98,12.58-28.12,8.88-11.1,2.22-8.88,4.44,50.321,21.46,61.421,18.5,5.454-27.2,5.454-27.2Z" transform="translate(-256.508 -248.526)"/><path class="l" d="M939.571,670.88s-4.81,20.35-21.46,19.98c0,0-25.161-2.22-15.54,6.66s65.861,10.36,65.861,10.36,0-30.341-10.36-37S939.571,670.88,939.571,670.88Z" transform="translate(-293.166 -266.465)"/><path class="m" d="M912.34,474.28l2.22,51.8s0,24.421,8.14,35.521,17.76,66.6,17.76,66.6h28.121s-8.14-74.742-14.8-83.622c0,0-2.96-65.861,7.4-80.662Z" transform="translate(-296.276 -213.428)"/><path class="b" d="M912.34,474.28l2.22,51.8s0,24.421,8.14,35.521,17.76,66.6,17.76,66.6h28.121s-8.14-74.742-14.8-83.622c0,0-2.96-65.861,7.4-80.662Z" transform="translate(-296.276 -213.428)"/><path class="m" d="M942.2,413.62s17.02,40.7-14.06,52.541-87.322,10.36-87.322,10.36l-2.96,85.842s-34.781,4.44-35.521-6.66V461.721s.74-10.36,23.681-19.24,54.021-13.32,54.021-13.32l1.48-19.24Z" transform="translate(-267.678 -199.389)"/><path class="b" d="M940.414,233.654a35.41,35.41,0,0,1,17.39,2.457c4.536,1.909,8.88,4.906,9.886,9.517,1.169,5.461-.126,17.709-1.613,28.076a193.356,193.356,0,0,0-.9,49.056c.74,6.8,1.813,12.728,3.256,15.37,4.44,8.14,8.88,46.621,8.88,46.621s-48.841-18.5-73.262-7.4c0,0-3.33-75.852-3.7-100.642-.289-19.2,24.051-41.071,32.191-41.811C937.305,234.468,935.67,234.15,940.414,233.654Z" transform="translate(-293.158 -153.507)"/><path class="n" d="M940.414,231.654a35.41,35.41,0,0,1,17.39,2.457c4.536,1.909,8.88,4.906,9.886,9.517,1.169,5.461-.126,17.709-1.613,28.076a193.355,193.355,0,0,0-.9,49.056,79.574,79.574,0,0,0,3.256,15.37c3.33,9.99,8.88,46.621,8.88,46.621s-48.841-18.5-73.262-7.4c0,0-3.33-75.852-3.7-100.642-.289-19.2,24.051-41.071,32.191-41.811C937.305,232.468,935.67,232.15,940.414,231.654Z" transform="translate(-293.158 -152.987)"/><path class="b" d="M953.623,276.923l-52.541-2.96s-3.345-25.76,4.24-25.494l52,1.813S968.423,263.6,953.623,276.923Z" transform="translate(-293.158 -157.414)"/><path class="n" d="M930.223,263.341l-59.941-2.96s-46.621-14.06-59.941-29.6c0,0,.74-27.381,15.54-28.861l35.01,25.671a37.8,37.8,0,0,0,21.031,7.3l52,1.813S945.023,250.021,930.223,263.341Z" transform="translate(-269.758 -145.312)"/><path class="b" d="M964.531,208.568c.88-7.015,4.063-9.346,6.29-12.21,5.18-6.66-38.481,9.62-38.481,9.62a78.5,78.5,0,0,1,5.92,10.886,26.529,26.529,0,0,0,11.1,2.435C955.769,219.3,959.928,212.364,964.531,208.568Z" transform="translate(-301.476 -143.45)"/><circle class="k" cx="26.641" cy="26.641" r="26.641" transform="translate(621.244 21.827)"/><path class="b" d="M929.641,157.191c-2.834-3.1-4.2-7.23-5.491-11.233l-2.96-9.169c4.011,2.368,8.288-2.96,12.891-3.7,3.293-.525,6.408,1.4,9.443,2.782,13.172,6.024,30.341,3.034,40.938,12.9a11.841,11.841,0,0,1,3.271,4.625,15.472,15.472,0,0,1,.592,5.18,59.444,59.444,0,0,1-1.384,13.9c-2.516,10.2-9.25,18.774-15.814,26.988-1.243,1.561-2.642,3.219-4.6,3.656-3.811.851-6.756-3.263-8.229-6.875a73.178,73.178,0,0,1-4.292-14.852,19.518,19.518,0,0,0-1.761-6.275c-2.294-4.063-7.948-7.911-11.382-11.063S932.793,160.632,929.641,157.191Z" transform="translate(-298.577 -127.394)"/><path class="o" d="M929.641,156.191c-2.834-3.1-4.2-7.23-5.491-11.233l-2.96-9.169c4.011,2.368,8.288-2.96,12.891-3.7,3.293-.525,6.408,1.4,9.443,2.782,13.172,6.024,30.341,3.034,40.938,12.9a11.841,11.841,0,0,1,3.271,4.625,15.472,15.472,0,0,1,.592,5.18,59.444,59.444,0,0,1-1.384,13.9c-2.516,10.2-9.25,18.774-15.814,26.988-1.243,1.561-2.642,3.219-4.6,3.656-3.811.851-6.756-3.263-8.229-6.875a73.18,73.18,0,0,1-4.292-14.852,19.518,19.518,0,0,0-1.761-6.275c-2.294-4.063-7.948-7.911-11.382-11.063S932.793,159.632,929.641,156.191Z" transform="translate(-298.577 -127.134)"/><ellipse class="k" cx="2.22" cy="4.81" rx="2.22" ry="4.81" transform="translate(652.695 46.617)"/><path class="b" d="M969.581,368.42s-1.48,4.44-8.88,3.7-28.861-2.22-28.861,0" transform="translate(-301.346 -188.6)"/><path class="p" d="M902.571,705.836a6.151,6.151,0,0,1-2.153-3.086c-.192.962.4,2.22,2.153,3.826,9.62,8.88,65.861,10.36,65.861,10.36v-.74C968.07,716.189,912.162,714.686,902.571,705.836Z" transform="translate(-293.168 -275.52)"/><path class="p" d="M821.509,633.041c-11.1,2.96-59.2-16.28-61.421-18.5a2.406,2.406,0,0,1-.614-1.08,2.664,2.664,0,0,0,.614,2.56c2.22,2.22,50.321,21.461,61.421,18.5,5.713-1.525,6.986-8.68,6.882-15.274C828.28,625.389,826.792,631.62,821.509,633.041Z" transform="translate(-256.506 -252.306)"/><path class="q" d="M581.54,628.38a1.11,1.11,0,1,0-1.11-1.11A1.11,1.11,0,0,0,581.54,628.38Z" transform="translate(-209.985 -255.608)"/><path class="i" d="M171.33,597.387s27.617-.851,35.935-6.779,42.477-13,44.542-3.5,41.508,47.272,10.3,47.553-72.44-4.854-80.751-9.916S171.33,597.387,171.33,597.387Z" transform="translate(-103.626 -244.247)"/><path class="f" d="M262.692,636.554c-31.177.252-72.44-4.855-80.751-9.916-6.327-3.855-8.88-17.679-9.687-24.058h-.925s1.746,22.274,10.057,27.329,49.574,10.2,80.721,9.983c9-.074,12.107-3.271,11.936-8.014C272.823,634.712,269.39,636.5,262.692,636.554Z" transform="translate(-103.626 -249.477)"/><rect class="a" width="76.222" height="30.341" rx="8.84" transform="translate(769.854 424.144) rotate(180)"/><rect class="b" width="76.222" height="30.341" rx="8.84" transform="translate(769.854 424.144) rotate(180)"/><rect class="a" width="76.222" height="30.341" rx="8.84" transform="translate(693.632 364.943)"/><rect class="a" width="76.222" height="30.341" rx="8.84" transform="translate(769.854 364.943) rotate(180)"/><rect class="b" width="76.222" height="30.341" rx="8.84" transform="translate(769.854 364.943) rotate(180)"/><rect class="a" width="76.222" height="30.341" rx="8.84" transform="translate(693.632 304.262)"/></g></svg>